<?xml version="1.0" encoding="UTF-8"?>
<svg width="92px" height="18px" viewBox="0 0 92 18" version="1.1" xmlns="http://www.w3.org/2000/svg" xmlns:xlink="http://www.w3.org/1999/xlink">
    <!-- Generator: Sketch 43.1 (39012) - http://www.bohemiancoding.com/sketch -->
    <title>Group 2</title>
    <desc>Created with Sketch.</desc>
    <defs></defs>
    <g id="Page-1" stroke="none" stroke-width="1" fill="none" fill-rule="evenodd">
        <g id="iPhone-7-Plus" transform="translate(-148.000000, -178.000000)">
            <g id="Group-2" transform="translate(148.000000, 178.000000)">
                <rect id="Rectangle" fill="#232323" x="0" y="0" width="92" height="18"></rect>
                <path d="M14.6474609,0.983398438 C16.2802816,0.983398438 17.6821231,1.31461257 18.8530273,1.97705078 C20.0239316,2.63948899 20.9101532,3.58121134 21.5117188,4.80224609 C22.1132843,6.02328084 22.4140625,7.45734854 22.4140625,9.10449219 C22.4140625,10.3219462 22.2493506,11.4283804 21.9199219,12.4238281 C21.5904931,13.4192758 21.0963575,14.2822229 20.4375,15.0126953 C19.7786425,15.7431677 18.9694058,16.3017559 18.0097656,16.6884766 C17.0501254,17.0751972 15.9508525,17.2685547 14.7119141,17.2685547 C13.4801371,17.2685547 12.3772835,17.0698262 11.4033203,16.6723633 C10.4293571,16.2749004 9.61653972,15.7145218 8.96484375,14.9912109 C8.31314778,14.2679 7.82080245,13.3977915 7.48779297,12.3808594 C7.15478349,11.3639272 6.98828125,10.2646543 6.98828125,9.08300781 C6.98828125,7.8727153 7.16194488,6.76270036 7.50927734,5.75292969 C7.85660981,4.74315901 8.35969723,3.88379261 9.01855469,3.17480469 C9.67741215,2.46581677 10.4794875,1.92334172 11.4248047,1.54736328 C12.3701219,1.17138484 13.4443299,0.983398438 14.6474609,0.983398438 Z M19.1806641,9.08300781 C19.1806641,7.93000726 18.994468,6.93099381 18.6220703,6.0859375 C18.2496726,5.24088119 17.7179397,4.60172743 17.0268555,4.16845703 C16.3357713,3.73518664 15.5426477,3.51855469 14.6474609,3.51855469 C14.010088,3.51855469 13.4210639,3.63850792 12.8803711,3.87841797 C12.3396783,4.11832802 11.8741881,4.46744562 11.4838867,4.92578125 C11.0935853,5.38411688 10.7856457,5.96956024 10.5600586,6.68212891 C10.3344715,7.39469757 10.2216797,8.19498254 10.2216797,9.08300781 C10.2216797,9.97819458 10.3344715,10.7874313 10.5600586,11.5107422 C10.7856457,12.2340531 11.1043274,12.8338192 11.5161133,13.3100586 C11.9278992,13.786298 12.4005507,14.1425769 12.934082,14.3789062 C13.4676133,14.6152356 14.0530567,14.7333984 14.6904297,14.7333984 C15.50684,14.7333984 16.2569953,14.5292989 16.940918,14.1210938 C17.6248407,13.7128886 18.169106,13.0826866 18.5737305,12.2304688 C18.9783549,11.3782509 19.1806641,10.3291078 19.1806641,9.08300781 Z M24.7436328,13.3261719 L32.8325,3.64746094 L25.8823047,3.64746094 C25.3953231,3.64746094 25.028302,3.54004014 24.7812305,3.32519531 C24.5341589,3.11035049 24.410625,2.82747571 24.410625,2.4765625 C24.410625,2.1113263 24.5341589,1.8159191 24.7812305,1.59033203 C25.028302,1.36474497 25.3953231,1.25195312 25.8823047,1.25195312 L34.8412891,1.25195312 C36.0014511,1.25195312 36.5815234,1.79263782 36.5815234,2.87402344 C36.5815234,3.38965102 36.4848447,3.80143075 36.2914844,4.109375 C36.098124,4.41731925 35.7078284,4.91503563 35.1205859,5.60253906 L27.5580859,14.6044922 L35.8940234,14.6044922 C36.3881665,14.6044922 36.7569779,14.7065419 37.0004687,14.9106445 C37.2439595,15.1147471 37.3657031,15.3994122 37.3657031,15.7646484 C37.3657031,16.1442076 37.2439595,16.4449859 37.0004687,16.6669922 C36.7569779,16.8889985 36.3881665,17 35.8940234,17 L25.6674609,17 C24.972796,17 24.4500148,16.8442398 24.0991016,16.5327148 C23.7481883,16.2211898 23.5727344,15.8040391 23.5727344,15.28125 C23.5727344,15.1022126 23.6013799,14.9375008 23.6586719,14.7871094 C23.7159638,14.636718 23.7929487,14.4952806 23.8896289,14.362793 C23.9863091,14.2303053 24.1205851,14.0620127 24.2924609,13.8579102 C24.4643368,13.6538076 24.6147259,13.4765633 24.7436328,13.3261719 Z M49.470664,15.2167969 L48.7187109,13.2402344 L42.3163672,13.2402344 L41.564414,15.2597656 C41.2707928,16.04753 41.0201443,16.5792629 40.8124609,16.8549805 C40.6047776,17.130698 40.2646117,17.2685547 39.7919531,17.2685547 C39.3909094,17.2685547 39.0364208,17.1217463 38.7284765,16.828125 C38.4205323,16.5345037 38.2665625,16.2014993 38.2665625,15.8291016 C38.2665625,15.6142567 38.3023694,15.3922538 38.3739844,15.1630859 C38.4455993,14.9339181 38.5637622,14.6152364 38.7284765,14.2070312 L42.7567969,3.98046875 C42.8713808,3.68684749 43.0092375,3.33414919 43.1703711,2.92236328 C43.3315047,2.51057737 43.503378,2.16862115 43.6859961,1.89648438 C43.8686142,1.6243476 44.1085206,1.40413496 44.4057226,1.23583984 C44.7029246,1.06754473 45.0699457,0.983398438 45.5067969,0.983398438 C45.9508095,0.983398438 46.3214113,1.06754473 46.6186133,1.23583984 C46.9158153,1.40413496 47.1557217,1.6207669 47.3383398,1.88574219 C47.5209579,2.15071747 47.6749277,2.43538259 47.8002539,2.73974609 C47.92558,3.04410959 48.0849209,3.45051829 48.2782812,3.95898438 L52.392539,14.1210938 C52.7148063,14.8945351 52.8759375,15.456704 52.8759375,15.8076172 C52.8759375,16.1728534 52.723758,16.5076482 52.4193945,16.8120117 C52.115031,17.1163752 51.7480099,17.2685547 51.3183203,17.2685547 C51.067668,17.2685547 50.8528264,17.223796 50.673789,17.1342773 C50.4947517,17.0447587 50.3443626,16.9230151 50.2226172,16.769043 C50.1008718,16.6150708 49.9701765,16.3787451 49.8305273,16.0600586 C49.6908782,15.7413721 49.570925,15.4602877 49.470664,15.2167969 Z M43.1542578,10.8447266 L47.8593359,10.8447266 L45.4853125,4.34570312 L43.1542578,10.8447266 Z M59.5238672,10.2646484 L58.4066797,10.2646484 L58.4066797,15.3242188 C58.4066797,15.9902377 58.2598712,16.4807927 57.96625,16.7958984 C57.6726287,17.1110042 57.2894945,17.2685547 56.8168359,17.2685547 C56.3083698,17.2685547 55.9144936,17.1038428 55.6351953,16.7744141 C55.355897,16.4449853 55.21625,15.9615917 55.21625,15.3242188 L55.21625,3.20703125 C55.21625,2.51952781 55.3702198,2.02181144 55.678164,1.71386719 C55.9861083,1.40592294 56.4838247,1.25195312 57.1713281,1.25195312 L62.3598047,1.25195312 C63.0759541,1.25195312 63.6882526,1.28238902 64.1967187,1.34326172 C64.7051848,1.40413442 65.1635136,1.52766834 65.5717187,1.71386719 C66.0658618,1.92155052 66.5027064,2.21874807 66.8822656,2.60546875 C67.2618248,2.99218943 67.5500706,3.44156645 67.7470117,3.95361328 C67.9439528,4.46566011 68.0424219,5.00813516 68.0424219,5.58105469 C68.0424219,6.75553973 67.7112077,7.69368139 67.0487695,8.39550781 C66.3863313,9.09733424 65.3819468,9.59505062 64.0355859,9.88867188 C64.601344,10.1894546 65.1420286,10.6334606 65.6576562,11.2207031 C66.1732838,11.8079456 66.6334029,12.4327766 67.0380273,13.0952148 C67.4426517,13.7576531 67.7577528,14.3556288 67.9833398,14.8891602 C68.2089269,15.4226915 68.3217187,15.7897125 68.3217187,15.9902344 C68.3217187,16.1979177 68.2554759,16.4038076 68.1229883,16.6079102 C67.9905006,16.8120127 67.8096756,16.9731439 67.5805078,17.0913086 C67.35134,17.2094732 67.0863687,17.2685547 66.7855859,17.2685547 C66.4275112,17.2685547 66.126733,17.1844084 65.8832422,17.0161133 C65.6397514,16.8478182 65.4302808,16.6347669 65.2548242,16.3769531 C65.0793676,16.1191393 64.8412515,15.7395858 64.5404687,15.2382812 L63.2621484,13.1113281 C62.8038128,12.3307253 62.3938234,11.7363302 62.0321679,11.328125 C61.6705125,10.9199198 61.3034914,10.6406258 60.9310937,10.4902344 C60.558696,10.339843 60.0896252,10.2646484 59.5238672,10.2646484 Z M61.350039,3.64746094 L58.4066797,3.64746094 L58.4066797,7.9765625 L61.2641015,7.9765625 C62.0303814,7.9765625 62.6749062,7.91031967 63.1976953,7.77783203 C63.7204844,7.64534439 64.1197317,7.41976071 64.3954492,7.10107422 C64.6711667,6.78238773 64.8090234,6.34375279 64.8090234,5.78515625 C64.8090234,5.34830511 64.6980219,4.96338057 64.4760156,4.63037109 C64.2540093,4.29736162 63.9460697,4.04850343 63.5521875,3.88378906 C63.1797898,3.72623619 62.4457476,3.64746094 61.350039,3.64746094 Z M74.2928906,2.91699219 L74.2928906,8.43847656 L80.5555859,1.90722656 C80.8563687,1.59212082 81.1123882,1.35937575 81.3236523,1.20898438 C81.5349164,1.058593 81.8160008,0.983398438 82.166914,0.983398438 C82.6252497,0.983398438 82.9958514,1.11767444 83.2787304,1.38623047 C83.5616095,1.6547865 83.7030468,1.98241994 83.7030468,2.36914062 C83.7030468,2.83463774 83.4631404,3.29654719 82.9833203,3.75488281 L79.1053906,7.42871094 L83.5741406,13.8310547 C83.8892463,14.2750673 84.1255721,14.6635726 84.283125,14.996582 C84.4406778,15.3295915 84.5194531,15.6536443 84.5194531,15.96875 C84.5194531,16.3196632 84.3815964,16.6240221 84.1058789,16.8818359 C83.8301614,17.1396497 83.4559789,17.2685547 82.9833203,17.2685547 C82.5393076,17.2685547 82.1776576,17.1736663 81.8983593,16.9838867 C81.6190611,16.7941071 81.3827353,16.5416682 81.189375,16.2265625 C80.9960146,15.9114568 80.8241413,15.6250013 80.67375,15.3671875 L76.9032422,9.56640625 L74.2928906,12.0693359 L74.2928906,15.3242188 C74.2928906,15.9830762 74.1425015,16.4718409 73.8417187,16.7905273 C73.540936,17.1092138 73.1542211,17.2685547 72.6815625,17.2685547 C72.4094257,17.2685547 72.1480351,17.1969408 71.8973828,17.0537109 C71.6467305,16.9104811 71.453373,16.7171236 71.3173047,16.4736328 C71.2170437,16.273111 71.156172,16.0403659 71.1346875,15.7753906 C71.113203,15.5104153 71.1024609,15.1272812 71.1024609,14.6259766 L71.1024609,2.91699219 C71.1024609,2.27245771 71.2438983,1.78906411 71.5267773,1.46679688 C71.8096563,1.14452964 72.1945809,0.983398438 72.6815625,0.983398438 C73.1613826,0.983398438 73.5498878,1.14273929 73.8470898,1.46142578 C74.1442918,1.78011227 74.2928906,2.26529622 74.2928906,2.91699219 Z" id="OZARK" fill="#FFFFFF"></path>
            </g>
        </g>
    </g>
</svg>